# xmcd
#
# Track frame offsets:
# 225
# 10446
# 19997
# 28731
# 39098
# 51341
# 70825
# 80019
# 91670
# 100235
# 114198
# 129209
# 137206
# 151050
# 165447
# 180246
# 194755
# 211166
#
# Disc length: 3055 seconds
#
#
# Revision: 1
# Processed by: cddbd v1.5.1PL2 Copyright (c) Steve Scherf et al.
# Submitted via: FreeRIP 2.944 
#
DISCID=e10bec12
DTITLE=Rangers - The Rangers
DYEAR=1900
DGENRE=
TTITLE0=Ta zem je tva zem
TTITLE1=Male Baby
TTITLE2=Oh Shenandoah
TTITLE3=Pojd ven
TTITLE4=Zvednete kotvy
TTITLE5=Balicek karet
TTITLE6=Jehly, spicky, sochory a kuly
TTITLE7=Neplac mala
TTITLE8=Sing - Sing
TTITLE9=Tricentova opera
TTITLE10=Smutny psani
TTITLE11=Plavci
TTITLE12=Colorado
TTITLE13=Tulak
TTITLE14=Zluty ptak
TTITLE15=Hrbitovni kviti
TTITLE16=Posledni vecere
TTITLE17=Otec a syn
EXTD=
EXTT0=
EXTT1=
EXTT2=
EXTT3=
EXTT4=
EXTT5=
EXTT6=
EXTT7=
EXTT8=
EXTT9=
EXTT10=
EXTT11=
EXTT12=
EXTT13=
EXTT14=
EXTT15=
EXTT16=
EXTT17=
PLAYORDER=
